<?xml version="1.0" encoding="UTF-8"?>
<svg xmlns="http://www.w3.org/2000/svg" style="stroke-dasharray:none; shape-rendering:auto; font-family:'Arial'; text-rendering:auto; fill-opacity:1; color-interpolation:auto; color-rendering:auto; font-size:12; fill:black; stroke:black; image-rendering:auto; stroke-miterlimit:10; stroke-linecap:square; stroke-linejoin:miter; font-style:normal; stroke-width:1; stroke-dashoffset:0; font-weight:normal; stroke-opacity:1;" contentScriptType="text/ecmascript" preserveAspectRatio="xMidYMid meet" zoomAndPan="magnify" version="1.0" contentStyleType="text/css" xml:xlink="http://www.w3.org/1999/xlink" width="1093" height="697"><rect x="0" y="588" width="496" height="109" ry="0" rx="0" style="stroke:#000000; fill:#A7FCC0" /><g componentSequence="2"><text x="-642" y="7" transform="rotate(270)" text-anchor="middle" style="font-weight:bold;font-size:10px;stroke:none; fill:#434343"><tspan dy="14" x="-642">Aprovado</tspan></text></g><rect x="495" y="588" width="586" height="109" ry="0" rx="0" style="stroke:#000000; fill:#FF9B9B" /><g componentSequence="4"><text x="-642" y="502" transform="rotate(270)" text-anchor="middle" style="font-weight:bold;font-size:10px;stroke:none; fill:#434343"><tspan dy="14" x="-642">Reprovado</tspan></text></g><rect x="0" y="266" width="1081" height="323" ry="0" rx="0" style="stroke:#000000; fill:#C0C0C0" /><g componentSequence="1"><text x="-427" y="7" transform="rotate(270)" text-anchor="middle" style="font-weight:bold;font-size:10px;stroke:none; fill:#434343"><tspan dy="14" x="-427">Autorizadores</tspan></text></g><rect x="0" y="0" width="1081" height="267" ry="0" rx="0" style="stroke:#000000; fill:#8CC6FF" /><g componentSequence="3"><text x="-133" y="7" transform="rotate(270)" text-anchor="middle" style="font-weight:bold;font-size:10px;stroke:none; fill:#434343"><tspan dy="14" x="-133">GSP - DA</tspan></text></g><g sequence="2"><ellipse cx="29" cy="17" rx="17" ry="17" stroke-width="1" style="fill:url(#linearGradient66FF6696FF96B6FFB6_628711170);" stroke="336633" /></g><g sequence="8"><ellipse cx="233" cy="641" rx="17" ry="17" stroke-width="3" style="fill:url(#linearGradientFF6666FF9696FFB6B6_733918685);" stroke="993333" /></g><g sequence="12"><rect x="912" y="51" width="106" height="84" ry="5" rx="5" style="fill:url(#linearGradientF8FBFEEDF5FCDEEDFAD4E7F8E2E5E9_796996722);" stroke="191970" /></g><g componentSequence="12"><text x="965" y="66" text-anchor="middle" style="font-weight:bold;font-size:10px;stroke:none; fill:#333399"><tspan dy="14" x="965">Comprador -</tspan><tspan dy="14" x="965">Tratar</tspan><tspan dy="14" x="965">Solicitação</tspan></text></g><g sequence="16"><ellipse cx="965" cy="629" rx="17" ry="17" stroke-width="3" style="fill:url(#linearGradientFF6666FF9696FFB6B6_1787019238);" stroke="993333" /></g><g sequence="36"><rect x="348" y="156" width="106" height="84" ry="5" rx="5" style="fill:url(#linearGradientF8FBFEEDF5FCDEEDFAD4E7F8E2E5E9_91061499);" stroke="191970" /></g><g componentSequence="36"><text x="401" y="171" text-anchor="middle" style="font-weight:bold;font-size:10px;stroke:none; fill:#333399"><tspan dy="14" x="401">Gestor DA -</tspan><tspan dy="14" x="401">Validar</tspan><tspan dy="14" x="401">Solicitação</tspan></text></g><g sequence="41"><rect x="240" y="276" width="106" height="84" ry="5" rx="5" style="fill:url(#linearGradientF8FBFEEDF5FCDEEDFAD4E7F8E2E5E9_1537421782);" stroke="191970" /></g><g componentSequence="41"><text x="293" y="291" text-anchor="middle" style="font-weight:bold;font-size:10px;stroke:none; fill:#333399"><tspan dy="14" x="293">Secretaria Geral</tspan><tspan dy="14" x="293">- Aprovar</tspan><tspan dy="14" x="293">Solicitação</tspan></text></g><g sequence="45"><rect x="408" y="468" width="106" height="84" ry="5" rx="5" style="fill:url(#linearGradientF8FBFEEDF5FCDEEDFAD4E7F8E2E5E9_2108140660);" stroke="191970" /></g><g componentSequence="45"><text x="461" y="483" text-anchor="middle" style="font-weight:bold;font-size:10px;stroke:none; fill:#333399"><tspan dy="14" x="461">Presidente -</tspan><tspan dy="14" x="461">Aprovar</tspan><tspan dy="14" x="461">Solicitação</tspan></text></g><g sequence="55"><rect x="480" y="51" width="106" height="84" ry="5" rx="5" style="fill:url(#linearGradientF8FBFEEDF5FCDEEDFAD4E7F8E2E5E9_179060905);" stroke="191970" /></g><g componentSequence="55"><text x="533" y="66" text-anchor="middle" style="font-weight:bold;font-size:10px;stroke:none; fill:#333399"><tspan dy="14" x="533">Gestor GSP -</tspan><tspan dy="14" x="533">Validar</tspan><tspan dy="14" x="533">Solicitação</tspan></text></g><g sequence="63"><rect x="72" y="420" width="106" height="84" ry="5" rx="5" style="fill:url(#linearGradientF8FBFEEDF5FCDEEDFAD4E7F8E2E5E9_1682472867);" stroke="191970" /></g><g componentSequence="63"><text x="125" y="435" text-anchor="middle" style="font-weight:bold;font-size:10px;stroke:none; fill:#333399"><tspan dy="14" x="125">Secretária -</tspan><tspan dy="14" x="125">Anexar</tspan><tspan dy="14" x="125">documento</tspan></text></g><g sequence="66"><polygon points=" 588 198 618 168 648 198 618 228 588 198" style="fill:url(#linearGradientFAFBFCFFFFCC_648531837);" stroke="000000" /></g><g componentSequence="66"><text x="618" y="238" text-anchor="middle" style="font-weight:bold;font-size:10px;stroke:none; fill:#333399"><tspan dy="14" x="618">Aprovad</tspan><tspan dy="14" x="618">o</tspan></text></g><g sequence="69"><rect x="552" y="276" width="106" height="70" ry="5" rx="5" style="fill:url(#linearGradientF8FBFEEDF5FCDEEDFAD4E7F8E2E5E9_1721959377);" stroke="191970" /></g><g componentSequence="69"><text x="605" y="291" text-anchor="middle" style="font-weight:bold;font-size:10px;stroke:none; fill:#333399"><tspan dy="14" x="605">VPF - Aprovar</tspan><tspan dy="14" x="605">Solicitação</tspan></text></g><g sequence="74"><rect x="732" y="276" width="106" height="84" ry="5" rx="5" style="fill:url(#linearGradientF8FBFEEDF5FCDEEDFAD4E7F8E2E5E9_249740964);" stroke="191970" /></g><g componentSequence="74"><text x="785" y="291" text-anchor="middle" style="font-weight:bold;font-size:10px;stroke:none; fill:#333399"><tspan dy="14" x="785">Autorizadores -</tspan><tspan dy="14" x="785">Aprovar</tspan><tspan dy="14" x="785">solicitação</tspan></text></g><g sequence="105"><rect x="108" y="36" width="106" height="84" ry="5" rx="5" style="fill:url(#linearGradientF8FBFEEDF5FCDEEDFAD4E7F8E2E5E9_703622588);" stroke="191970" /></g><g componentSequence="105"><text x="161" y="51" text-anchor="middle" style="font-weight:bold;font-size:10px;stroke:none; fill:#333399"><tspan dy="14" x="161">Solicitante -</tspan><tspan dy="14" x="161">Anexar</tspan><tspan dy="14" x="161">Documento</tspan></text></g><rect x="84" y="613" width="105" height="55" ry="5" rx="5" style="stroke:none; fill:#FFFFE0" /><g componentSequence="26"><text x="94" y="626" text-anchor="left" style="font-weight:bold;font-size:10px;stroke:none; fill:#000000"><tspan dy="14" x="94">Aprovado</tspan></text></g><path style="fill:none; stroke-width:1; stroke:#000000;" d="M104.0 613.0 L84.0 613.0 L84.0 668.0 L104.0 668.0" /><rect x="780" y="612" width="105" height="69" ry="5" rx="5" style="stroke:none; fill:#FFFFE0" /><g componentSequence="30"><text x="790" y="635" text-anchor="left" style="font-weight:bold;font-size:10px;stroke:none; fill:#000000"><tspan dy="14" x="790">Reprova e</tspan><tspan dy="14" x="790">Cancela</tspan><tspan dy="14" x="790">Movimento</tspan></text></g><path style="fill:none; stroke-width:1; stroke:#000000;" d="M800.0 612.0 L780.0 612.0 L780.0 681.0 L800.0 681.0" /><rect x="72" y="135" width="105" height="69" ry="5" rx="5" style="stroke:none; fill:#FFFFE0" /><g componentSequence="79"><text x="82" y="158" text-anchor="left" style="font-weight:bold;font-size:10px;stroke:none; fill:#000000"><tspan dy="14" x="82">Usuário do</tspan><tspan dy="14" x="82">movimento do</tspan><tspan dy="14" x="82">RM</tspan></text></g><path style="fill:none; stroke-width:1; stroke:#000000;" d="M92.0 135.0 L72.0 135.0 L72.0 204.0 L92.0 204.0" /><rect x="780" y="108" width="105" height="69" ry="5" rx="5" style="stroke:none; fill:#FFFFE0" /><g componentSequence="81"><text x="790" y="131" text-anchor="left" style="font-weight:bold;font-size:10px;stroke:none; fill:#000000"><tspan dy="14" x="790">Usuário do</tspan><tspan dy="14" x="790">movimento do</tspan><tspan dy="14" x="790">RM</tspan></text></g><path style="fill:none; stroke-width:1; stroke:#000000;" d="M800.0 108.0 L780.0 108.0 L780.0 177.0 L800.0 177.0" /><rect x="612" y="24" width="105" height="69" ry="5" rx="5" style="stroke:none; fill:#FFFFE0" /><g componentSequence="83"><text x="622" y="47" text-anchor="left" style="font-weight:bold;font-size:10px;stroke:none; fill:#000000"><tspan dy="14" x="622">Autorizador do</tspan><tspan dy="14" x="622">usuário do</tspan><tspan dy="14" x="622">movimento</tspan></text></g><path style="fill:none; stroke-width:1; stroke:#000000;" d="M632.0 24.0 L612.0 24.0 L612.0 93.0 L632.0 93.0" /><rect x="36" y="516" width="105" height="55" ry="5" rx="5" style="stroke:none; fill:#FFFFE0" /><g componentSequence="87"><text x="46" y="529" text-anchor="left" style="font-weight:bold;font-size:10px;stroke:none; fill:#000000"><tspan dy="14" x="46">Grupo Internos</tspan></text></g><path style="fill:none; stroke-width:1; stroke:#000000;" d="M56.0 516.0 L36.0 516.0 L36.0 571.0 L56.0 571.0" /><rect x="84" y="264" width="105" height="55" ry="5" rx="5" style="stroke:none; fill:#FFFFE0" /><g componentSequence="89"><text x="94" y="277" text-anchor="left" style="font-weight:bold;font-size:10px;stroke:none; fill:#000000"><tspan dy="14" x="94">Grupo w_SG</tspan></text></g><path style="fill:none; stroke-width:1; stroke:#000000;" d="M104.0 264.0 L84.0 264.0 L84.0 319.0 L104.0 319.0" /><rect x="288" y="444" width="105" height="55" ry="5" rx="5" style="stroke:none; fill:#FFFFE0" /><g componentSequence="91"><text x="298" y="457" text-anchor="left" style="font-weight:bold;font-size:10px;stroke:none; fill:#000000"><tspan dy="14" x="298">Grupo w_PRES</tspan></text></g><path style="fill:none; stroke-width:1; stroke:#000000;" d="M308.0 444.0 L288.0 444.0 L288.0 499.0 L308.0 499.0" /><rect x="432" y="276" width="105" height="55" ry="5" rx="5" style="stroke:none; fill:#FFFFE0" /><g componentSequence="93"><text x="442" y="289" text-anchor="left" style="font-weight:bold;font-size:10px;stroke:none; fill:#000000"><tspan dy="14" x="442">Grupo w_VPF</tspan></text></g><path style="fill:none; stroke-width:1; stroke:#000000;" d="M452.0 276.0 L432.0 276.0 L432.0 331.0 L452.0 331.0" /><rect x="852" y="216" width="105" height="83" ry="5" rx="5" style="stroke:none; fill:#FFFFE0" /><g componentSequence="95"><text x="862" y="239" text-anchor="left" style="font-weight:bold;font-size:10px;stroke:none; fill:#000000"><tspan dy="14" x="862">Aciona Grupo</tspan><tspan dy="14" x="862">conforme</tspan><tspan dy="14" x="862">centro de</tspan><tspan dy="14" x="862">custo</tspan></text></g><path style="fill:none; stroke-width:1; stroke:#000000;" d="M872.0 216.0 L852.0 216.0 L852.0 299.0 L872.0 299.0" /><g componentSequence="37"><text x="538" y="200" style="font-size:10px;font-weight:none;stroke:none; fill:#333399" text-anchor="left" /></g><g componentSequence="39"><text x="975" y="373" style="font-size:10px;font-weight:none;stroke:none; fill:#333399" text-anchor="left"><tspan dy="14" x="975">Cancelar Solicitação</tspan></text></g><g componentSequence="47"><text x="391" y="617" style="font-size:10px;font-weight:none;stroke:none; fill:#333399" text-anchor="left" /></g><g componentSequence="48"><text x="271" y="492" style="font-size:10px;font-weight:none;stroke:none; fill:#333399" text-anchor="left" /></g><g componentSequence="49"><text x="800" y="510" style="font-size:10px;font-weight:none;stroke:none; fill:#333399" text-anchor="left"><tspan dy="14" x="800">Cancelar Solicitação</tspan></text></g><g componentSequence="50"><text x="759" y="22" style="font-size:10px;font-weight:none;stroke:none; fill:#333399" text-anchor="left" /></g><g componentSequence="57"><text x="87" y="39" style="font-size:10px;font-weight:none;stroke:none; fill:#333399" text-anchor="left" /></g><g componentSequence="58"><text x="357" y="85" style="font-size:10px;font-weight:none;stroke:none; fill:#333399" text-anchor="left" /></g><g componentSequence="59"><text x="362" y="23" style="font-size:10px;font-weight:none;stroke:none; fill:#333399" text-anchor="left" /></g><g componentSequence="64"><text x="140" y="337" style="font-size:10px;font-weight:none;stroke:none; fill:#333399" text-anchor="left" /></g><g componentSequence="65"><text x="244" y="428" style="font-size:10px;font-weight:none;stroke:none; fill:#333399" text-anchor="left" /></g><g componentSequence="67"><text x="497" y="242" style="font-size:10px;font-weight:none;stroke:none; fill:#333399" text-anchor="left" /></g><g componentSequence="68"><text x="477" y="265" style="font-size:10px;font-weight:none;stroke:none; fill:#333399" text-anchor="left" /></g><g componentSequence="70"><text x="621" y="273" style="font-size:10px;font-weight:none;stroke:none; fill:#333399" text-anchor="left" /></g><g componentSequence="73"><text x="561" y="601" style="font-size:10px;font-weight:none;stroke:none; fill:#333399" text-anchor="left" /></g><g componentSequence="75"><text x="700" y="262" style="font-size:10px;font-weight:none;stroke:none; fill:#333399" text-anchor="left" /></g><g componentSequence="78"><text x="633" y="592" style="font-size:10px;font-weight:none;stroke:none; fill:#333399" text-anchor="left" /></g><g componentSequence="97"><text x="759" y="93" style="font-size:10px;font-weight:none;stroke:none; fill:#333399" text-anchor="left" /></g><g componentSequence="98"><text x="431" y="116" style="font-size:10px;font-weight:none;stroke:none; fill:#333399" text-anchor="left" /></g><g componentSequence="99"><text x="387" y="414" style="font-size:10px;font-weight:none;stroke:none; fill:#333399" text-anchor="left" /></g><g componentSequence="100"><text x="761" y="385" style="font-size:10px;font-weight:none;stroke:none; fill:#333399" text-anchor="left" /></g><g componentSequence="101"><text x="545" y="407" style="font-size:10px;font-weight:none;stroke:none; fill:#333399" text-anchor="left" /></g><g componentSequence="102"><text x="806" y="480" style="font-size:10px;font-weight:none;stroke:none; fill:#333399" text-anchor="left" /></g><g componentSequence="103"><text x="633" y="414" style="font-size:10px;font-weight:none;stroke:none; fill:#333399" text-anchor="left" /></g><g componentSequence="104"><text x="975" y="412" style="font-size:10px;font-weight:none;stroke:none; fill:#333399" text-anchor="left" /></g><g componentSequence="27"><text x="212" y="641" style="font-size:10px;font-weight:none;stroke:none; fill:#333399" text-anchor="left" /></g><g componentSequence="31"><text x="926" y="635" style="font-size:10px;font-weight:none;stroke:none; fill:#333399" text-anchor="left" /></g><g componentSequence="80"><text x="151" y="127" style="font-size:10px;font-weight:none;stroke:none; fill:#333399" text-anchor="left" /></g><g componentSequence="82"><text x="908" y="117" style="font-size:10px;font-weight:none;stroke:none; fill:#333399" text-anchor="left" /></g><g componentSequence="84"><text x="609" y="76" style="font-size:10px;font-weight:none;stroke:none; fill:#333399" text-anchor="left" /></g><g componentSequence="88"><text x="114" y="510" style="font-size:10px;font-weight:none;stroke:none; fill:#333399" text-anchor="left" /></g><g componentSequence="90"><text x="224" y="304" style="font-size:10px;font-weight:none;stroke:none; fill:#333399" text-anchor="left" /></g><g componentSequence="92"><text x="410" y="490" style="font-size:10px;font-weight:none;stroke:none; fill:#333399" text-anchor="left" /></g><g componentSequence="94"><text x="554" y="308" style="font-size:10px;font-weight:none;stroke:none; fill:#333399" text-anchor="left" /></g><g componentSequence="96"><text x="855" y="288" style="font-size:10px;font-weight:none;stroke:none; fill:#333399" text-anchor="left" /></g><path style="fill:none; stroke:#000000;stroke-width:1" d="M45.0 24.0 L107.0 53.0" /><polygon style="fill:#000000; stroke:#000000;" points=" 100 44 107 53 96 53 100 50" /><path style="fill:none; stroke:#000000;stroke-width:1" d="M460.0 552.0 L460.0 604.0 L250.0 639.0" /><polygon style="fill:#000000; stroke:#000000;" points=" 261 642 250 639 259 632 258 638" /><path style="fill:none; stroke:#000000;stroke-width:1" d="M285.0 360.0 L236.0 624.0" /><polygon style="fill:#000000; stroke:#000000;" points=" 243 615 236 624 233 613 237 616" /><path style="fill:none; stroke:#000000;stroke-width:1" d="M605.0 346.0 L605.0 594.0 L250.0 639.0" /><polygon style="fill:#000000; stroke:#000000;" points=" 261 643 250 639 259 633 258 638" /><path style="fill:none; stroke:#000000;stroke-width:1" d="M785.0 360.0 L785.0 374.0 L785.0 410.0 L785.0 572.0 L250.0 639.0" /><polygon style="fill:#000000; stroke:#000000;" points=" 261 643 250 639 259 633 258 638" /><path style="fill:none; stroke:#000000;stroke-dasharray:2" d="M189.0 641.0 L216.0 641.0" /><path style="fill:none; stroke:#000000;stroke-width:1" d="M965.0 135.0 L965.0 611.0" /><polygon style="fill:#000000; stroke:#000000;" points=" 970 601 965 611 960 601 965 603" /><path style="fill:none; stroke:#000000;stroke-width:1" d="M965.0 50.0 L965.0 22.0 L532.0 22.0 L532.0 50.0" /><polygon style="fill:#000000; stroke:#000000;" points=" 537 40 532 50 527 40 532 42" /><path style="fill:none; stroke:#000000;stroke-width:1" d="M586.0 93.0 L911.0 93.0" /><polygon style="fill:#000000; stroke:#000000;" points=" 901 88 911 93 901 98 903 93" /><path style="fill:none; stroke:#000000;stroke-dasharray:2" d="M885.0 122.0 L911.0 112.0" /><path style="fill:none; stroke:#000000;stroke-width:1" d="M514.0 510.0 L965.0 510.0 L965.0 611.0" /><polygon style="fill:#000000; stroke:#000000;" points=" 970 601 965 611 960 601 965 603" /><path style="fill:none; stroke:#000000;stroke-width:1" d="M346.0 325.0 L965.0 417.0 L965.0 611.0" /><polygon style="fill:#000000; stroke:#000000;" points=" 970 601 965 611 960 601 965 603" /><path style="fill:none; stroke:#000000;stroke-width:1" d="M645.0 346.0 L952.0 618.0" /><polygon style="fill:#000000; stroke:#000000;" points=" 948 608 952 618 941 615 946 613" /><path style="fill:none; stroke:#000000;stroke-width:1" d="M838.0 324.0 L965.0 341.0 L965.0 611.0" /><polygon style="fill:#000000; stroke:#000000;" points=" 970 601 965 611 960 601 965 603" /><path style="fill:none; stroke:#000000;stroke-dasharray:2" d="M885.0 639.0 L948.0 631.0" /><path style="fill:none; stroke:#000000;stroke-width:1" d="M402.0 240.0 L403.0 257.0 L587.0 224.0" /><polygon style="fill:#000000; stroke:#000000;" points=" 576 221 587 224 578 231 579 225" /><path style="fill:none; stroke:#000000;stroke-width:1" d="M398.0 155.0 L396.0 121.0 L479.0 104.0" /><polygon style="fill:#000000; stroke:#000000;" points=" 468 101 479 104 470 111 471 106" /><path style="fill:none; stroke:#000000;stroke-width:1" d="M534.0 135.0 L536.0 200.0 L454.0 198.0" /><polygon style="fill:#000000; stroke:#000000;" points=" 464 203 454 198 464 193 462 198" /><path style="fill:none; stroke:#000000;stroke-width:1" d="M239.0 324.0 L100.0 341.0 L116.0 419.0" /><polygon style="fill:#000000; stroke:#000000;" points=" 119 408 116 419 109 410 114 411" /><path style="fill:none; stroke:#000000;stroke-width:1" d="M330.0 360.0 L423.0 467.0" /><polygon style="fill:#000000; stroke:#000000;" points=" 420 456 423 467 413 463 418 461" /><path style="fill:none; stroke:#000000;stroke-width:1" d="M178.0 462.0 L215.0 463.0 L270.0 360.0" /><polygon style="fill:#000000; stroke:#000000;" points=" 261 366 270 360 270 371 266 367" /><path style="fill:none; stroke:#000000;stroke-width:1" d="M587.0 228.0 L346.0 301.0" /><polygon style="fill:#000000; stroke:#000000;" points=" 357 303 346 301 354 293 354 299" /><path style="fill:none; stroke:#000000;stroke-dasharray:2" d="M189.0 300.0 L239.0 308.0" /><path style="fill:none; stroke:#000000;stroke-width:1" d="M579.0 346.0 L491.0 467.0" /><polygon style="fill:#000000; stroke:#000000;" points=" 501 462 491 467 493 456 496 461" /><path style="fill:none; stroke:#000000;stroke-width:1" d="M731.0 349.0 L514.0 478.0" /><polygon style="fill:#000000; stroke:#000000;" points=" 525 477 514 478 520 469 521 474" /><path style="fill:none; stroke:#000000;stroke-dasharray:2" d="M393.0 488.0 L407.0 492.0" /><path style="fill:none; stroke:#009600;stroke-width:1" d="M214.0 80.0 L479.0 90.0" /><polygon style="fill:#009600; stroke:#009600;" points=" 469 85 479 90 469 95 471 90" /><path style="fill:none; stroke:#000000;stroke-width:1" d="M159.0 35.0 L159.0 23.0 L244.0 23.0 L529.0 23.0 L530.0 50.0" /><polygon style="fill:#000000; stroke:#000000;" points=" 535 40 530 50 525 40 530 42" /><path style="fill:none; stroke:#000000;stroke-dasharray:2" d="M611.0 72.0 L586.0 78.0" /><path style="fill:none; stroke:#000000;stroke-dasharray:2" d="M101.0 515.0 L105.0 504.0" /><path style="fill:none; stroke:#000000;stroke-width:1" d="M611.0 270.0 L610.0 275.0" /><polygon style="fill:#000000; stroke:#000000;" points=" 617 266 610 275 607 264 612 267" /><path style="fill:none; stroke:#000000;stroke-width:1" d="M648.0 237.0 L731.0 286.0" /><polygon style="fill:#000000; stroke:#000000;" points=" 725 277 731 286 720 285 724 282" /><path style="fill:none; stroke:#000000;stroke-dasharray:2" d="M537.0 307.0 L551.0 307.0" /><path style="fill:none; stroke:#000000;stroke-dasharray:2" d="M851.0 284.0 L838.0 290.0" /><path style="fill:none; stroke:#000000;stroke-dasharray:2" d="M138.0 134.0 L144.0 120.0" /><defs><linearGradient xmlns:xlink="http://www.w3.org/1999/xlink" xlink:href="#linearGradient66FF6696FF96B6FFB6" id="linearGradient66FF6696FF96B6FFB6_628711170" x1="0" y1="0.0" x2="0" y2="35.0" gradientUnits="userSpaceOnUse" xlink:type="simple" xlink:actuate="onLoad" xlink:show="other" /><linearGradient id="linearGradient66FF6696FF96B6FFB6"><stop style="stop-color:#66FF66;stop-opacity:1;" offset="0.0" id="stop66FF66" /><stop style="stop-color:#96FF96;stop-opacity:1;" offset="0.5" id="stop96FF96" /><stop style="stop-color:#B6FFB6;stop-opacity:1;" offset="1.0" id="stopB6FFB6" /></linearGradient><linearGradient xmlns:xlink="http://www.w3.org/1999/xlink" xlink:href="#linearGradientFF6666FF9696FFB6B6" id="linearGradientFF6666FF9696FFB6B6_733918685" x1="0" y1="624.0" x2="0" y2="659.0" gradientUnits="userSpaceOnUse" xlink:type="simple" xlink:actuate="onLoad" xlink:show="other" /><linearGradient id="linearGradientFF6666FF9696FFB6B6"><stop style="stop-color:#FF6666;stop-opacity:1;" offset="0.0" id="stopFF6666" /><stop style="stop-color:#FF9696;stop-opacity:1;" offset="0.5" id="stopFF9696" /><stop style="stop-color:#FFB6B6;stop-opacity:1;" offset="1.0" id="stopFFB6B6" /></linearGradient><linearGradient xmlns:xlink="http://www.w3.org/1999/xlink" xlink:href="#linearGradientF8FBFEEDF5FCDEEDFAD4E7F8E2E5E9" id="linearGradientF8FBFEEDF5FCDEEDFAD4E7F8E2E5E9_796996722" x1="0" y1="51.0" x2="0" y2="157.0" gradientUnits="userSpaceOnUse" xlink:type="simple" xlink:actuate="onLoad" xlink:show="other" /><linearGradient id="linearGradientF8FBFEEDF5FCDEEDFAD4E7F8E2E5E9"><stop style="stop-color:#F8FBFE;stop-opacity:1;" offset="0.0" id="stopF8FBFE" /><stop style="stop-color:#EDF5FC;stop-opacity:1;" offset="0.25" id="stopEDF5FC" /><stop style="stop-color:#DEEDFA;stop-opacity:1;" offset="0.5" id="stopDEEDFA" /><stop style="stop-color:#D4E7F8;stop-opacity:1;" offset="0.75" id="stopD4E7F8" /><stop style="stop-color:#E2E5E9;stop-opacity:1;" offset="1.0" id="stopE2E5E9" /></linearGradient><linearGradient xmlns:xlink="http://www.w3.org/1999/xlink" xlink:href="#linearGradientFF6666FF9696FFB6B6" id="linearGradientFF6666FF9696FFB6B6_1787019238" x1="0" y1="612.0" x2="0" y2="647.0" gradientUnits="userSpaceOnUse" xlink:type="simple" xlink:actuate="onLoad" xlink:show="other" /><linearGradient xmlns:xlink="http://www.w3.org/1999/xlink" xlink:href="#linearGradientF8FBFEEDF5FCDEEDFAD4E7F8E2E5E9" id="linearGradientF8FBFEEDF5FCDEEDFAD4E7F8E2E5E9_91061499" x1="0" y1="156.0" x2="0" y2="262.0" gradientUnits="userSpaceOnUse" xlink:type="simple" xlink:actuate="onLoad" xlink:show="other" /><linearGradient xmlns:xlink="http://www.w3.org/1999/xlink" xlink:href="#linearGradientF8FBFEEDF5FCDEEDFAD4E7F8E2E5E9" id="linearGradientF8FBFEEDF5FCDEEDFAD4E7F8E2E5E9_1537421782" x1="0" y1="276.0" x2="0" y2="382.0" gradientUnits="userSpaceOnUse" xlink:type="simple" xlink:actuate="onLoad" xlink:show="other" /><linearGradient xmlns:xlink="http://www.w3.org/1999/xlink" xlink:href="#linearGradientF8FBFEEDF5FCDEEDFAD4E7F8E2E5E9" id="linearGradientF8FBFEEDF5FCDEEDFAD4E7F8E2E5E9_2108140660" x1="0" y1="468.0" x2="0" y2="574.0" gradientUnits="userSpaceOnUse" xlink:type="simple" xlink:actuate="onLoad" xlink:show="other" /><linearGradient xmlns:xlink="http://www.w3.org/1999/xlink" xlink:href="#linearGradientF8FBFEEDF5FCDEEDFAD4E7F8E2E5E9" id="linearGradientF8FBFEEDF5FCDEEDFAD4E7F8E2E5E9_179060905" x1="0" y1="51.0" x2="0" y2="157.0" gradientUnits="userSpaceOnUse" xlink:type="simple" xlink:actuate="onLoad" xlink:show="other" /><linearGradient xmlns:xlink="http://www.w3.org/1999/xlink" xlink:href="#linearGradientF8FBFEEDF5FCDEEDFAD4E7F8E2E5E9" id="linearGradientF8FBFEEDF5FCDEEDFAD4E7F8E2E5E9_1682472867" x1="0" y1="420.0" x2="0" y2="526.0" gradientUnits="userSpaceOnUse" xlink:type="simple" xlink:actuate="onLoad" xlink:show="other" /><linearGradient xmlns:xlink="http://www.w3.org/1999/xlink" xlink:href="#linearGradientFAFBFCFFFFCC" id="linearGradientFAFBFCFFFFCC_648531837" x1="0" y1="168.0" x2="0" y2="228.0" gradientUnits="userSpaceOnUse" xlink:type="simple" xlink:actuate="onLoad" xlink:show="other" /><linearGradient id="linearGradientFAFBFCFFFFCC"><stop style="stop-color:#FAFBFC;stop-opacity:1;" offset="0.0" id="stopFAFBFC" /><stop style="stop-color:#FFFFCC;stop-opacity:1;" offset="1.0" id="stopFFFFCC" /></linearGradient><linearGradient xmlns:xlink="http://www.w3.org/1999/xlink" xlink:href="#linearGradientF8FBFEEDF5FCDEEDFAD4E7F8E2E5E9" id="linearGradientF8FBFEEDF5FCDEEDFAD4E7F8E2E5E9_1721959377" x1="0" y1="276.0" x2="0" y2="382.0" gradientUnits="userSpaceOnUse" xlink:type="simple" xlink:actuate="onLoad" xlink:show="other" /><linearGradient xmlns:xlink="http://www.w3.org/1999/xlink" xlink:href="#linearGradientF8FBFEEDF5FCDEEDFAD4E7F8E2E5E9" id="linearGradientF8FBFEEDF5FCDEEDFAD4E7F8E2E5E9_249740964" x1="0" y1="276.0" x2="0" y2="382.0" gradientUnits="userSpaceOnUse" xlink:type="simple" xlink:actuate="onLoad" xlink:show="other" /><linearGradient xmlns:xlink="http://www.w3.org/1999/xlink" xlink:href="#linearGradientF8FBFEEDF5FCDEEDFAD4E7F8E2E5E9" id="linearGradientF8FBFEEDF5FCDEEDFAD4E7F8E2E5E9_703622588" x1="0" y1="36.0" x2="0" y2="142.0" gradientUnits="userSpaceOnUse" xlink:type="simple" xlink:actuate="onLoad" xlink:show="other" /></defs></svg>
