<?xml version="1.0" encoding="UTF-8"?>
<svg xmlns="http://www.w3.org/2000/svg" style="stroke-dasharray:none; shape-rendering:auto; font-family:'Arial'; text-rendering:auto; fill-opacity:1; color-interpolation:auto; color-rendering:auto; font-size:12; fill:black; stroke:black; image-rendering:auto; stroke-miterlimit:10; stroke-linecap:square; stroke-linejoin:miter; font-style:normal; stroke-width:1; stroke-dashoffset:0; font-weight:normal; stroke-opacity:1;" contentScriptType="text/ecmascript" preserveAspectRatio="xMidYMid meet" zoomAndPan="magnify" version="1.0" contentStyleType="text/css" xml:xlink="http://www.w3.org/1999/xlink" width="889" height="409"><rect x="0" y="300" width="411" height="109" ry="0" rx="0" style="stroke:#000000; fill:#A7FCC0" /><g componentSequence="2"><text x="-354" y="7" transform="rotate(270)" text-anchor="middle" style="font-weight:bold;font-size:10px;stroke:none; fill:#434343"><tspan dy="14" x="-354">Aprovado</tspan></text></g><rect x="410" y="300" width="479" height="109" ry="0" rx="0" style="stroke:#000000; fill:#FF9B9B" /><g componentSequence="4"><text x="-354" y="417" transform="rotate(270)" text-anchor="middle" style="font-weight:bold;font-size:10px;stroke:none; fill:#434343"><tspan dy="14" x="-354">Reprovado</tspan></text></g><rect x="0" y="0" width="889" height="301" ry="0" rx="0" style="stroke:#000000; fill:#8CC6FF" /><g componentSequence="3"><text x="-150" y="7" transform="rotate(270)" text-anchor="middle" style="font-weight:bold;font-size:10px;stroke:none; fill:#434343"><tspan dy="14" x="-150">GSP - DA</tspan></text></g><g sequence="2"><ellipse cx="29" cy="17" rx="17" ry="17" stroke-width="1" style="fill:url(#linearGradient66FF6696FF96B6FFB6_1980363021);" stroke="336633" /></g><g sequence="8"><ellipse cx="137" cy="347" rx="17" ry="17" stroke-width="3" style="fill:url(#linearGradientFF6666FF9696FFB6B6_2026770876);" stroke="993333" /></g><g sequence="12"><rect x="690" y="50" width="106" height="84" ry="5" rx="5" style="fill:url(#linearGradientF8FBFEEDF5FCDEEDFAD4E7F8E2E5E9_2096208509);" stroke="191970" /></g><g componentSequence="12"><text x="743" y="65" text-anchor="middle" style="font-weight:bold;font-size:10px;stroke:none; fill:#333399"><tspan dy="14" x="743">Comprador -</tspan><tspan dy="14" x="743">Tratar</tspan><tspan dy="14" x="743">Solicitação</tspan></text></g><g sequence="16"><ellipse cx="747" cy="355" rx="17" ry="17" stroke-width="3" style="fill:url(#linearGradientFF6666FF9696FFB6B6_972233607);" stroke="993333" /></g><g sequence="36"><rect x="120" y="153" width="106" height="84" ry="5" rx="5" style="fill:url(#linearGradientF8FBFEEDF5FCDEEDFAD4E7F8E2E5E9_13304877);" stroke="191970" /></g><g componentSequence="36"><text x="173" y="168" text-anchor="middle" style="font-weight:bold;font-size:10px;stroke:none; fill:#333399"><tspan dy="14" x="173">Gestor DA -</tspan><tspan dy="14" x="173">Validar</tspan><tspan dy="14" x="173">Solicitação</tspan></text></g><g sequence="55"><rect x="388" y="85" width="106" height="84" ry="5" rx="5" style="fill:url(#linearGradientF8FBFEEDF5FCDEEDFAD4E7F8E2E5E9_142648953);" stroke="191970" /></g><g componentSequence="55"><text x="441" y="100" text-anchor="middle" style="font-weight:bold;font-size:10px;stroke:none; fill:#333399"><tspan dy="14" x="441">Gestor GSP -</tspan><tspan dy="14" x="441">Validar</tspan><tspan dy="14" x="441">Solicitação</tspan></text></g><g sequence="105"><rect x="108" y="36" width="106" height="84" ry="5" rx="5" style="fill:url(#linearGradientF8FBFEEDF5FCDEEDFAD4E7F8E2E5E9_2018699110);" stroke="191970" /></g><g componentSequence="105"><text x="161" y="51" text-anchor="middle" style="font-weight:bold;font-size:10px;stroke:none; fill:#333399"><tspan dy="14" x="161">Solicitante -</tspan><tspan dy="14" x="161">Anexar</tspan><tspan dy="14" x="161">Documento</tspan></text></g><rect x="210" y="320" width="105" height="55" ry="5" rx="5" style="stroke:none; fill:#FFFFE0" /><g componentSequence="26"><text x="220" y="333" text-anchor="left" style="font-weight:bold;font-size:10px;stroke:none; fill:#000000"><tspan dy="14" x="220">Aprovado</tspan></text></g><path style="fill:none; stroke-width:1; stroke:#000000;" d="M230.0 320.0 L210.0 320.0 L210.0 375.0 L230.0 375.0" /><rect x="510" y="317" width="105" height="77" ry="5" rx="5" style="stroke:none; fill:#FFFFE0" /><g componentSequence="30"><text x="520" y="340" text-anchor="left" style="font-weight:bold;font-size:10px;stroke:none; fill:#000000"><tspan dy="14" x="520">Reprova e</tspan><tspan dy="14" x="520">Cancela</tspan><tspan dy="14" x="520">Movimento</tspan></text></g><path style="fill:none; stroke-width:1; stroke:#000000;" d="M530.0 317.0 L510.0 317.0 L510.0 394.0 L530.0 394.0" /><g componentSequence="37"><text x="358" y="197" style="font-size:10px;font-weight:none;stroke:none; fill:#333399" text-anchor="left" /></g><g componentSequence="39"><text x="755" y="236" style="font-size:10px;font-weight:none;stroke:none; fill:#333399" text-anchor="left"><tspan dy="14" x="755">Cancelar Solicitação</tspan></text></g><g componentSequence="50"><text x="585" y="22" style="font-size:10px;font-weight:none;stroke:none; fill:#333399" text-anchor="left" /></g><g componentSequence="57"><text x="87" y="39" style="font-size:10px;font-weight:none;stroke:none; fill:#333399" text-anchor="left" /></g><g componentSequence="58"><text x="311" y="102" style="font-size:10px;font-weight:none;stroke:none; fill:#333399" text-anchor="left" /></g><g componentSequence="59"><text x="335" y="23" style="font-size:10px;font-weight:none;stroke:none; fill:#333399" text-anchor="left" /></g><g componentSequence="97"><text x="602" y="109" style="font-size:10px;font-weight:none;stroke:none; fill:#333399" text-anchor="left" /></g><g componentSequence="27"><text x="192" y="347" style="font-size:10px;font-weight:none;stroke:none; fill:#333399" text-anchor="left" /></g><g componentSequence="31"><text x="682" y="355" style="font-size:10px;font-weight:none;stroke:none; fill:#333399" text-anchor="left" /></g><g componentSequence="106"><text x="162" y="283" style="font-size:10px;font-weight:none;stroke:none; fill:#333399" text-anchor="left" /></g><g componentSequence="107"><text x="317" y="162" style="font-size:10px;font-weight:none;stroke:none; fill:#333399" text-anchor="left" /></g><g componentSequence="108"><text x="539" y="230" style="font-size:10px;font-weight:none;stroke:none; fill:#333399" text-anchor="left" /></g><path style="fill:none; stroke:#000000;stroke-width:1" d="M45.0 24.0 L107.0 53.0" /><polygon style="fill:#000000; stroke:#000000;" points=" 100 44 107 53 96 53 100 50" /><path style="fill:none; stroke:#000000;stroke-dasharray:2" d="M209.0 347.0 L155.0 347.0" /><path style="fill:none; stroke:#000000;stroke-width:1" d="M743.0 134.0 L747.0 338.0" /><polygon style="fill:#000000; stroke:#000000;" points=" 752 328 747 338 742 328 747 330" /><path style="fill:none; stroke:#000000;stroke-width:1" d="M743.0 49.0 L743.0 22.0 L441.0 22.0 L441.0 84.0" /><polygon style="fill:#000000; stroke:#000000;" points=" 446 74 441 84 436 74 441 76" /><path style="fill:none; stroke:#000000;stroke-width:1" d="M494.0 120.0 L689.0 98.0" /><polygon style="fill:#000000; stroke:#000000;" points=" 679 94 689 98 680 104 681 99" /><path style="fill:none; stroke:#000000;stroke-dasharray:2" d="M615.0 355.0 L729.0 355.0" /><path style="fill:none; stroke:#000000;stroke-width:1" d="M441.0 169.0 L441.0 198.0 L226.0 195.0" /><polygon style="fill:#000000; stroke:#000000;" points=" 236 200 226 195 236 190 234 195" /><path style="fill:none; stroke:#009600;stroke-width:1" d="M214.0 87.0 L387.0 117.0" /><polygon style="fill:#009600; stroke:#009600;" points=" 378 110 387 117 376 120 379 116" /><path style="fill:none; stroke:#000000;stroke-width:1" d="M159.0 35.0 L159.0 23.0 L244.0 23.0 L441.0 23.0 L441.0 84.0" /><polygon style="fill:#000000; stroke:#000000;" points=" 446 74 441 84 436 74 441 76" /><path style="fill:none; stroke:#000000;stroke-width:1" d="M163.0 237.0 L141.0 330.0" /><polygon style="fill:#000000; stroke:#000000;" points=" 148 321 141 330 138 319 143 322" /><path style="fill:none; stroke:#000000;stroke-width:1" d="M226.0 183.0 L232.0 182.0 L387.0 141.0" /><polygon style="fill:#000000; stroke:#000000;" points=" 376 139 387 141 379 148 379 143" /><path style="fill:none; stroke:#000000;stroke-width:1" d="M226.0 200.0 L747.0 251.0 L747.0 337.0" /><polygon style="fill:#000000; stroke:#000000;" points=" 752 327 747 337 742 327 747 329" /><defs><linearGradient xmlns:xlink="http://www.w3.org/1999/xlink" xlink:href="#linearGradient66FF6696FF96B6FFB6" id="linearGradient66FF6696FF96B6FFB6_1980363021" x1="0" y1="0.0" x2="0" y2="35.0" gradientUnits="userSpaceOnUse" xlink:type="simple" xlink:actuate="onLoad" xlink:show="other" /><linearGradient id="linearGradient66FF6696FF96B6FFB6"><stop style="stop-color:#66FF66;stop-opacity:1;" offset="0.0" id="stop66FF66" /><stop style="stop-color:#96FF96;stop-opacity:1;" offset="0.5" id="stop96FF96" /><stop style="stop-color:#B6FFB6;stop-opacity:1;" offset="1.0" id="stopB6FFB6" /></linearGradient><linearGradient xmlns:xlink="http://www.w3.org/1999/xlink" xlink:href="#linearGradientFF6666FF9696FFB6B6" id="linearGradientFF6666FF9696FFB6B6_2026770876" x1="0" y1="330.0" x2="0" y2="365.0" gradientUnits="userSpaceOnUse" xlink:type="simple" xlink:actuate="onLoad" xlink:show="other" /><linearGradient id="linearGradientFF6666FF9696FFB6B6"><stop style="stop-color:#FF6666;stop-opacity:1;" offset="0.0" id="stopFF6666" /><stop style="stop-color:#FF9696;stop-opacity:1;" offset="0.5" id="stopFF9696" /><stop style="stop-color:#FFB6B6;stop-opacity:1;" offset="1.0" id="stopFFB6B6" /></linearGradient><linearGradient xmlns:xlink="http://www.w3.org/1999/xlink" xlink:href="#linearGradientF8FBFEEDF5FCDEEDFAD4E7F8E2E5E9" id="linearGradientF8FBFEEDF5FCDEEDFAD4E7F8E2E5E9_2096208509" x1="0" y1="50.0" x2="0" y2="156.0" gradientUnits="userSpaceOnUse" xlink:type="simple" xlink:actuate="onLoad" xlink:show="other" /><linearGradient id="linearGradientF8FBFEEDF5FCDEEDFAD4E7F8E2E5E9"><stop style="stop-color:#F8FBFE;stop-opacity:1;" offset="0.0" id="stopF8FBFE" /><stop style="stop-color:#EDF5FC;stop-opacity:1;" offset="0.25" id="stopEDF5FC" /><stop style="stop-color:#DEEDFA;stop-opacity:1;" offset="0.5" id="stopDEEDFA" /><stop style="stop-color:#D4E7F8;stop-opacity:1;" offset="0.75" id="stopD4E7F8" /><stop style="stop-color:#E2E5E9;stop-opacity:1;" offset="1.0" id="stopE2E5E9" /></linearGradient><linearGradient xmlns:xlink="http://www.w3.org/1999/xlink" xlink:href="#linearGradientFF6666FF9696FFB6B6" id="linearGradientFF6666FF9696FFB6B6_972233607" x1="0" y1="338.0" x2="0" y2="373.0" gradientUnits="userSpaceOnUse" xlink:type="simple" xlink:actuate="onLoad" xlink:show="other" /><linearGradient xmlns:xlink="http://www.w3.org/1999/xlink" xlink:href="#linearGradientF8FBFEEDF5FCDEEDFAD4E7F8E2E5E9" id="linearGradientF8FBFEEDF5FCDEEDFAD4E7F8E2E5E9_13304877" x1="0" y1="153.0" x2="0" y2="259.0" gradientUnits="userSpaceOnUse" xlink:type="simple" xlink:actuate="onLoad" xlink:show="other" /><linearGradient xmlns:xlink="http://www.w3.org/1999/xlink" xlink:href="#linearGradientF8FBFEEDF5FCDEEDFAD4E7F8E2E5E9" id="linearGradientF8FBFEEDF5FCDEEDFAD4E7F8E2E5E9_142648953" x1="0" y1="85.0" x2="0" y2="191.0" gradientUnits="userSpaceOnUse" xlink:type="simple" xlink:actuate="onLoad" xlink:show="other" /><linearGradient xmlns:xlink="http://www.w3.org/1999/xlink" xlink:href="#linearGradientF8FBFEEDF5FCDEEDFAD4E7F8E2E5E9" id="linearGradientF8FBFEEDF5FCDEEDFAD4E7F8E2E5E9_2018699110" x1="0" y1="36.0" x2="0" y2="142.0" gradientUnits="userSpaceOnUse" xlink:type="simple" xlink:actuate="onLoad" xlink:show="other" /></defs></svg>
