<?xml version="1.0" encoding="UTF-8"?>
<svg xmlns="http://www.w3.org/2000/svg" style="stroke-dasharray:none; shape-rendering:auto; font-family:'Arial'; text-rendering:auto; fill-opacity:1; color-interpolation:auto; color-rendering:auto; font-size:12; fill:black; stroke:black; image-rendering:auto; stroke-miterlimit:10; stroke-linecap:square; stroke-linejoin:miter; font-style:normal; stroke-width:1; stroke-dashoffset:0; font-weight:normal; stroke-opacity:1;" contentScriptType="text/ecmascript" preserveAspectRatio="xMidYMid meet" zoomAndPan="magnify" version="1.0" contentStyleType="text/css" xml:xlink="http://www.w3.org/1999/xlink" width="889" height="549"><rect x="0" y="440" width="411" height="109" ry="0" rx="0" style="stroke:#000000; fill:#A7FCC0" /><g componentSequence="3"><text x="-494" y="7" transform="rotate(270)" text-anchor="middle" style="font-weight:bold;font-size:10px;stroke:none; fill:#434343"><tspan dy="14" x="-494">Aprovado</tspan></text></g><rect x="410" y="440" width="479" height="109" ry="0" rx="0" style="stroke:#000000; fill:#FF9B9B" /><g componentSequence="2"><text x="-494" y="417" transform="rotate(270)" text-anchor="middle" style="font-weight:bold;font-size:10px;stroke:none; fill:#434343"><tspan dy="14" x="-494">Reprovado</tspan></text></g><rect x="0" y="0" width="889" height="441" ry="0" rx="0" style="stroke:#000000; fill:#8CC6FF" /><g componentSequence="1"><text x="-220" y="7" transform="rotate(270)" text-anchor="middle" style="font-weight:bold;font-size:10px;stroke:none; fill:#434343"><tspan dy="14" x="-220">GSP - DA</tspan></text></g><g sequence="2"><ellipse cx="29" cy="17" rx="17" ry="17" stroke-width="1" style="fill:url(#linearGradient66FF6696FF96B6FFB6_1116216705);" stroke="336633" /></g><g sequence="8"><ellipse cx="137" cy="487" rx="17" ry="17" stroke-width="3" style="fill:url(#linearGradientFF6666FF9696FFB6B6_1280306080);" stroke="993333" /></g><g sequence="12"><rect x="690" y="50" width="106" height="84" ry="5" rx="5" style="fill:url(#linearGradientF8FBFEEDF5FCDEEDFAD4E7F8E2E5E9_1215330033);" stroke="191970" /></g><g componentSequence="12"><text x="743" y="65" text-anchor="middle" style="font-weight:bold;font-size:10px;stroke:none; fill:#333399"><tspan dy="14" x="743">Almoxarife -</tspan><tspan dy="14" x="743">Tratar</tspan><tspan dy="14" x="743">Solicitação</tspan></text></g><g sequence="16"><ellipse cx="747" cy="495" rx="17" ry="17" stroke-width="3" style="fill:url(#linearGradientFF6666FF9696FFB6B6_225632667);" stroke="993333" /></g><g sequence="36"><rect x="120" y="153" width="106" height="84" ry="5" rx="5" style="fill:url(#linearGradientF8FBFEEDF5FCDEEDFAD4E7F8E2E5E9_253002145);" stroke="191970" /></g><g componentSequence="36"><text x="173" y="168" text-anchor="middle" style="font-weight:bold;font-size:10px;stroke:none; fill:#333399"><tspan dy="14" x="173">Gestor DA -</tspan><tspan dy="14" x="173">Validar</tspan><tspan dy="14" x="173">Solicitação</tspan></text></g><g sequence="55"><rect x="388" y="85" width="106" height="84" ry="5" rx="5" style="fill:url(#linearGradientF8FBFEEDF5FCDEEDFAD4E7F8E2E5E9_1018521864);" stroke="191970" /></g><g componentSequence="55"><text x="441" y="100" text-anchor="middle" style="font-weight:bold;font-size:10px;stroke:none; fill:#333399"><tspan dy="14" x="441">Gestor GSP -</tspan><tspan dy="14" x="441">Validar</tspan><tspan dy="14" x="441">Solicitação</tspan></text></g><g sequence="105"><rect x="108" y="36" width="106" height="84" ry="5" rx="5" style="fill:url(#linearGradientF8FBFEEDF5FCDEEDFAD4E7F8E2E5E9_2000246673);" stroke="191970" /></g><g componentSequence="105"><text x="161" y="51" text-anchor="middle" style="font-weight:bold;font-size:10px;stroke:none; fill:#333399"><tspan dy="14" x="161">Almoxarife -</tspan><tspan dy="14" x="161">Anexar</tspan><tspan dy="14" x="161">Documento</tspan></text></g><g sequence="109"><rect x="120" y="290" width="106" height="84" ry="5" rx="5" style="fill:url(#linearGradientF8FBFEEDF5FCDEEDFAD4E7F8E2E5E9_1834819284);" stroke="191970" /></g><g componentSequence="109"><text x="173" y="305" text-anchor="middle" style="font-weight:bold;font-size:10px;stroke:none; fill:#333399"><tspan dy="14" x="173">Aprovado -</tspan><tspan dy="14" x="173">Encaminhar</tspan><tspan dy="14" x="173">Designador</tspan></text></g><g sequence="110"><rect x="520" y="290" width="106" height="70" ry="5" rx="5" style="fill:url(#linearGradientF8FBFEEDF5FCDEEDFAD4E7F8E2E5E9_1181713239);" stroke="191970" /></g><g componentSequence="110"><text x="573" y="305" text-anchor="middle" style="font-weight:bold;font-size:10px;stroke:none; fill:#333399"><tspan dy="14" x="573">Selecionar</tspan><tspan dy="14" x="573">Comprador</tspan></text></g><rect x="210" y="460" width="105" height="55" ry="5" rx="5" style="stroke:none; fill:#FFFFE0" /><g componentSequence="26"><text x="220" y="473" text-anchor="left" style="font-weight:bold;font-size:10px;stroke:none; fill:#000000"><tspan dy="14" x="220">Aprovado</tspan></text></g><path style="fill:none; stroke-width:1; stroke:#000000;" d="M230.0 460.0 L210.0 460.0 L210.0 515.0 L230.0 515.0" /><rect x="510" y="457" width="105" height="69" ry="5" rx="5" style="stroke:none; fill:#FFFFE0" /><g componentSequence="30"><text x="520" y="480" text-anchor="left" style="font-weight:bold;font-size:10px;stroke:none; fill:#000000"><tspan dy="14" x="520">Reprova e</tspan><tspan dy="14" x="520">Cancela</tspan><tspan dy="14" x="520">Movimento</tspan></text></g><path style="fill:none; stroke-width:1; stroke:#000000;" d="M530.0 457.0 L510.0 457.0 L510.0 526.0 L530.0 526.0" /><g componentSequence="37"><text x="358" y="197" style="font-size:10px;font-weight:none;stroke:none; fill:#333399" text-anchor="left" /></g><g componentSequence="39"><text x="755" y="306" style="font-size:10px;font-weight:none;stroke:none; fill:#333399" text-anchor="left"><tspan dy="14" x="755">Cancelar Solicitação</tspan></text></g><g componentSequence="50"><text x="585" y="22" style="font-size:10px;font-weight:none;stroke:none; fill:#333399" text-anchor="left" /></g><g componentSequence="57"><text x="87" y="39" style="font-size:10px;font-weight:none;stroke:none; fill:#333399" text-anchor="left" /></g><g componentSequence="58"><text x="311" y="102" style="font-size:10px;font-weight:none;stroke:none; fill:#333399" text-anchor="left" /></g><g componentSequence="59"><text x="335" y="23" style="font-size:10px;font-weight:none;stroke:none; fill:#333399" text-anchor="left" /></g><g componentSequence="97"><text x="602" y="109" style="font-size:10px;font-weight:none;stroke:none; fill:#333399" text-anchor="left" /></g><g componentSequence="111"><text x="383" y="329" style="font-size:10px;font-weight:none;stroke:none; fill:#333399" text-anchor="left" /></g><g componentSequence="112"><text x="347" y="412" style="font-size:10px;font-weight:none;stroke:none; fill:#333399" text-anchor="left" /></g><g componentSequence="113"><text x="183" y="263" style="font-size:10px;font-weight:none;stroke:none; fill:#333399" text-anchor="left" /></g><g componentSequence="114"><text x="317" y="161" style="font-size:10px;font-weight:none;stroke:none; fill:#333399" text-anchor="left" /></g><g componentSequence="115"><text x="603" y="244" style="font-size:10px;font-weight:none;stroke:none; fill:#333399" text-anchor="left" /></g><g componentSequence="27"><text x="192" y="487" style="font-size:10px;font-weight:none;stroke:none; fill:#333399" text-anchor="left" /></g><g componentSequence="31"><text x="682" y="494" style="font-size:10px;font-weight:none;stroke:none; fill:#333399" text-anchor="left" /></g><path style="fill:none; stroke:#000000;stroke-width:1" d="M45.0 24.0 L107.0 53.0" /><polygon style="fill:#000000; stroke:#000000;" points=" 100 44 107 53 96 53 100 50" /><path style="fill:none; stroke:#000000;stroke-width:1" d="M519.0 344.0 L153.0 481.0" /><polygon style="fill:#000000; stroke:#000000;" points=" 164 482 153 481 161 473 160 478" /><path style="fill:none; stroke:#000000;stroke-dasharray:2" d="M209.0 487.0 L155.0 487.0" /><path style="fill:none; stroke:#000000;stroke-width:1" d="M743.0 134.0 L747.0 478.0" /><polygon style="fill:#000000; stroke:#000000;" points=" 752 468 747 478 742 468 747 470" /><path style="fill:none; stroke:#000000;stroke-width:1" d="M743.0 49.0 L743.0 22.0 L441.0 22.0 L441.0 84.0" /><polygon style="fill:#000000; stroke:#000000;" points=" 446 74 441 84 436 74 441 76" /><path style="fill:none; stroke:#000000;stroke-width:1" d="M494.0 120.0 L689.0 98.0" /><polygon style="fill:#000000; stroke:#000000;" points=" 679 94 689 98 680 104 681 99" /><path style="fill:none; stroke:#000000;stroke-width:1" d="M226.0 201.0 L747.0 262.0 L747.0 477.0" /><polygon style="fill:#000000; stroke:#000000;" points=" 752 467 747 477 742 467 747 469" /><path style="fill:none; stroke:#000000;stroke-dasharray:2" d="M615.0 492.0 L730.0 495.0" /><path style="fill:none; stroke:#000000;stroke-width:1" d="M173.0 237.0 L173.0 289.0" /><polygon style="fill:#000000; stroke:#000000;" points=" 178 279 173 289 168 279 173 281" /><path style="fill:none; stroke:#000000;stroke-width:1" d="M226.0 181.0 L387.0 140.0" /><polygon style="fill:#000000; stroke:#000000;" points=" 376 138 387 140 379 147 379 142" /><path style="fill:none; stroke:#000000;stroke-width:1" d="M441.0 169.0 L441.0 198.0 L226.0 195.0" /><polygon style="fill:#000000; stroke:#000000;" points=" 236 200 226 195 236 190 234 195" /><path style="fill:none; stroke:#009600;stroke-width:1" d="M214.0 87.0 L387.0 117.0" /><polygon style="fill:#009600; stroke:#009600;" points=" 378 110 387 117 376 120 379 116" /><path style="fill:none; stroke:#000000;stroke-width:1" d="M159.0 35.0 L159.0 23.0 L244.0 23.0 L441.0 23.0 L441.0 84.0" /><polygon style="fill:#000000; stroke:#000000;" points=" 446 74 441 84 436 74 441 76" /><path style="fill:none; stroke:#000000;stroke-width:1" d="M226.0 331.0 L519.0 326.0" /><polygon style="fill:#000000; stroke:#000000;" points=" 509 321 519 326 509 331 511 326" /><defs><linearGradient xmlns:xlink="http://www.w3.org/1999/xlink" xlink:href="#linearGradient66FF6696FF96B6FFB6" id="linearGradient66FF6696FF96B6FFB6_1116216705" x1="0" y1="0.0" x2="0" y2="35.0" gradientUnits="userSpaceOnUse" xlink:type="simple" xlink:actuate="onLoad" xlink:show="other" /><linearGradient id="linearGradient66FF6696FF96B6FFB6"><stop style="stop-color:#66FF66;stop-opacity:1;" offset="0.0" id="stop66FF66" /><stop style="stop-color:#96FF96;stop-opacity:1;" offset="0.5" id="stop96FF96" /><stop style="stop-color:#B6FFB6;stop-opacity:1;" offset="1.0" id="stopB6FFB6" /></linearGradient><linearGradient xmlns:xlink="http://www.w3.org/1999/xlink" xlink:href="#linearGradientFF6666FF9696FFB6B6" id="linearGradientFF6666FF9696FFB6B6_1280306080" x1="0" y1="470.0" x2="0" y2="505.0" gradientUnits="userSpaceOnUse" xlink:type="simple" xlink:actuate="onLoad" xlink:show="other" /><linearGradient id="linearGradientFF6666FF9696FFB6B6"><stop style="stop-color:#FF6666;stop-opacity:1;" offset="0.0" id="stopFF6666" /><stop style="stop-color:#FF9696;stop-opacity:1;" offset="0.5" id="stopFF9696" /><stop style="stop-color:#FFB6B6;stop-opacity:1;" offset="1.0" id="stopFFB6B6" /></linearGradient><linearGradient xmlns:xlink="http://www.w3.org/1999/xlink" xlink:href="#linearGradientF8FBFEEDF5FCDEEDFAD4E7F8E2E5E9" id="linearGradientF8FBFEEDF5FCDEEDFAD4E7F8E2E5E9_1215330033" x1="0" y1="50.0" x2="0" y2="156.0" gradientUnits="userSpaceOnUse" xlink:type="simple" xlink:actuate="onLoad" xlink:show="other" /><linearGradient id="linearGradientF8FBFEEDF5FCDEEDFAD4E7F8E2E5E9"><stop style="stop-color:#F8FBFE;stop-opacity:1;" offset="0.0" id="stopF8FBFE" /><stop style="stop-color:#EDF5FC;stop-opacity:1;" offset="0.25" id="stopEDF5FC" /><stop style="stop-color:#DEEDFA;stop-opacity:1;" offset="0.5" id="stopDEEDFA" /><stop style="stop-color:#D4E7F8;stop-opacity:1;" offset="0.75" id="stopD4E7F8" /><stop style="stop-color:#E2E5E9;stop-opacity:1;" offset="1.0" id="stopE2E5E9" /></linearGradient><linearGradient xmlns:xlink="http://www.w3.org/1999/xlink" xlink:href="#linearGradientFF6666FF9696FFB6B6" id="linearGradientFF6666FF9696FFB6B6_225632667" x1="0" y1="478.0" x2="0" y2="513.0" gradientUnits="userSpaceOnUse" xlink:type="simple" xlink:actuate="onLoad" xlink:show="other" /><linearGradient xmlns:xlink="http://www.w3.org/1999/xlink" xlink:href="#linearGradientF8FBFEEDF5FCDEEDFAD4E7F8E2E5E9" id="linearGradientF8FBFEEDF5FCDEEDFAD4E7F8E2E5E9_253002145" x1="0" y1="153.0" x2="0" y2="259.0" gradientUnits="userSpaceOnUse" xlink:type="simple" xlink:actuate="onLoad" xlink:show="other" /><linearGradient xmlns:xlink="http://www.w3.org/1999/xlink" xlink:href="#linearGradientF8FBFEEDF5FCDEEDFAD4E7F8E2E5E9" id="linearGradientF8FBFEEDF5FCDEEDFAD4E7F8E2E5E9_1018521864" x1="0" y1="85.0" x2="0" y2="191.0" gradientUnits="userSpaceOnUse" xlink:type="simple" xlink:actuate="onLoad" xlink:show="other" /><linearGradient xmlns:xlink="http://www.w3.org/1999/xlink" xlink:href="#linearGradientF8FBFEEDF5FCDEEDFAD4E7F8E2E5E9" id="linearGradientF8FBFEEDF5FCDEEDFAD4E7F8E2E5E9_2000246673" x1="0" y1="36.0" x2="0" y2="142.0" gradientUnits="userSpaceOnUse" xlink:type="simple" xlink:actuate="onLoad" xlink:show="other" /><linearGradient xmlns:xlink="http://www.w3.org/1999/xlink" xlink:href="#linearGradientF8FBFEEDF5FCDEEDFAD4E7F8E2E5E9" id="linearGradientF8FBFEEDF5FCDEEDFAD4E7F8E2E5E9_1834819284" x1="0" y1="290.0" x2="0" y2="396.0" gradientUnits="userSpaceOnUse" xlink:type="simple" xlink:actuate="onLoad" xlink:show="other" /><linearGradient xmlns:xlink="http://www.w3.org/1999/xlink" xlink:href="#linearGradientF8FBFEEDF5FCDEEDFAD4E7F8E2E5E9" id="linearGradientF8FBFEEDF5FCDEEDFAD4E7F8E2E5E9_1181713239" x1="0" y1="290.0" x2="0" y2="396.0" gradientUnits="userSpaceOnUse" xlink:type="simple" xlink:actuate="onLoad" xlink:show="other" /></defs></svg>
